<?xml version="1.0" encoding="iso-8859-1"?>
<!-- Generator: Adobe Illustrator 23.0.1, SVG Export Plug-In . SVG Version: 6.00 Build 0)  -->
<svg version="1.1" id="Layer_1" xmlns="http://www.w3.org/2000/svg" xmlns:xlink="http://www.w3.org/1999/xlink" x="0px" y="0px"
	 viewBox="0 0 512 512" style="enable-background:new 0 0 512 512;" xml:space="preserve">
<g>
	<path style="fill-rule:evenodd;clip-rule:evenodd;fill:#231F20;" d="M162.611,258.263c3.267,3.566,7.748,4.777,12.115,4.478
		c13.841-6.926,6.534-27.914,10.402-40.742c0.198-0.714,0.404-1.323,0.703-1.94l0.935-0.4c5.483,4.676,9.247,10.283,11.501,17.609
		l8.35,18.028c0.202,1.536-0.299,1.839-1.94,3.065l0.206,9.883c1.533,3.361,3.865,5.498,5.797,7.225
		c0.224,0.209,0.415,0.419,0.624,0.512c0.606,0.217,1.312,0.108,2.127,0.097c1.009-0.097,1.925-0.097,2.549,0.519l1.839,3.772
		l1.727,3.764l2.957,6.414l3.472,7.326h2.646h6.814l-3.966-8.75c5.506,2.643,8.952,7.136,14.245,8.762l4.489-0.012
		c4.781-2.231,6.216-7.726,8.358-11.8l0.718,0.198l5.494,11.602l9.367,0.012l-0.508-0.92l5.801-11.61l6.22-11.512l4.486-8.148
		l3.566-6.511c3.562-8.974,6.612-18.237,7.943-28.931c4.074,19.964-1.936,40.541-4.074,58.968c1.106,1.121,1.73,1.428,2.938,1.536
		c5.823-21.295,8.676-47.766,4.582-72.223l4.493,6.325l3.562-2.239c1.024-0.83,2.037-1.544,2.949-2.243
		c1.544-1.125,2.961-2.146,4.291-3.065c0.49-0.303,0.919-0.602,1.319-0.92c0.505-0.407,1.002-0.71,1.435-1.009
		c4.882-3.357,9.562-6.526,13.748-10.601l-6.833-23.122c-0.404,1.335-1.839,3.158-3.465,2.15c-1.428-5.51,1.024-12.335,2.867-18.14
		c6.818,12.529,10.574,26.49,14.253,40.537c-6.328,5.82-13.763,11.21-20.573,16.103c-0.43,0.31-0.916,0.71-1.432,1.009
		c-0.415,0.31-0.83,0.628-1.319,0.916c-1.432,1.133-2.845,2.142-4.28,3.159c0,0-0.015,0.101-0.108,0.112l-2.844,2.437l2.949,4.179
		l4.276,6.007l1.323,1.835l1.439,2.041l25.761,36.052l0.008-13.445l-15.494-20.869l-9.774-13.957
		c8.137-7.95,18.334-12.533,25.271-20.487l-0.011-10.485c-5.102-21.896-13.961-42.567-25.761-60.904
		c-0.433-0.718-0.919-1.432-1.435-2.149c-0.206-0.411-0.501-0.807-0.83-1.319c-0.198,0-0.295,0-0.493-0.108
		c-1.013,0-1.828,1.226-2.026,1.846c-0.232,1.921,1.208,3.368,2.026,4.579c0.508,0.718,0.815,1.428,0.501,2.138
		c-0.097,0.209-0.303,0.516-0.497,0.718c-0.912,1.121-2.03,1.622-3.166,2.138c-0.404,0-0.699-0.109-1.129-0.206
		c-2.336-0.818-3.76-3.252-6.41-2.441c-1.315-0.512-2.138,2.55-1.843,3.046c-0.299,1.839,3.282,2.344,3.282,4.695
		c-3.05,4.179-6.216,8.451-7.76,12.526c-0.505,8.246-6.911,14.555-13.232,20.775c-1.525,1.525-3.057,3.057-4.478,4.594
		c-1.843,1.921-3.469,3.857-4.792,5.898c1.54,0.916,3.166,1.435,4.792,1.734c1.431,0.307,2.961,0.303,4.474,0.202
		c8.653-0.71,17.728-7.031,25.981-9.681c1.518-0.4,2.946-0.819,4.276-1.017c0.408,0.007,0.908-0.094,1.312-0.094l0,0l0,0l0,0l0,0
		l0,0l0,0c-0.004,0-0.004,0-0.004,0s0,0,0.015,0.011c0,0,0,0,0,0.007l0,0c-0.003,0.011-0.003,0.011,0,0.019v0.015
		c0,0-0.003,0,0,0.008v0.011c0,0.019-0.003,0.019,0,0.023c0.408,0.407,0.905,0.718,1.435,0.927c1.405,0.598,3.05,0.598,3.962,0.916
		c1.215,5.091,2.553,8.96,3.054,13.744c-1.723,1.536-4.268,3.469-7.016,5.293c-0.426,0.31-0.923,0.62-1.439,0.923
		c-0.4,0.299-0.815,0.609-1.32,0.811c-1.439,0.916-2.848,1.727-4.287,2.452c-1.312,0.602-2.646,1.215-3.857,1.73l-11.927-12.428
		l-6.414,1.828c-1.327,0.101-2.534,0.198-3.768,0.31c-1.521,0-3.057-0.011-4.478,0c-9.173-0.419-17.728-3.05-25.47-7.745
		l15.374-6.616c2.661-1.63,6.523-2.96,7.345-6.115l-3.772-6.732c2.347-2.022,4.474-4.269,6.508-6.62
		c1.536-1.824,3.08-3.558,4.489-5.495c3.67-4.889,6.84-9.883,9.176-14.566c2.946-7.02,5.697-13.344,5.398-21.089
		c-0.411-2.131-1.634-4.885-3.465-5.188c-3.868-0.097-7.532,0.206-11.098,0.811c-1.521,0.322-3.054,0.62-4.486,1.028
		c-16.398,4.078-29.555,14.963-42.26,25.671l-1.136-0.007c0.318-1.828,0.714-3.158-0.101-3.869c-0.92-0.718-2.037,0.4-2.957,0.819
		c-4.16,1.933-5.297,6.919-5.398,10.275l-0.4,0.318c-1.334-1.637-0.097-3.876-1.932-5.304c-1.936,0.62-2.65,2.235-2.848,4.179
		c-0.322,1.824-0.097,3.966-0.426,5.711l-1.114-0.011c-0.613-1.424-0.093-2.744-1.211-3.973c-0.714-0.191-1.637,0.209-1.947,0.916
		c-0.602,1.02-1.002,2.041-1.417,3.259c-0.834,2.848-0.721,6.108,0,8.866c0.198,0.819,0.512,1.536,0.803,2.235
		c-0.191,0.217-0.516,0.508-0.807,0.718c-0.916,0.714-2.034,1.215-2.957,1.933c-0.71,0.508-1.207,1.125-1.435,2.045
		c-0.003,0.815,0.815,1.312,1.443,1.932c0.097,0.109,0.299,0.299,0.392,0.516c-0.194,0.602-0.295,1.219-0.4,1.824
		c-0.512,2.045-1.11,3.868-1.727,5.711c-1.536,4.377-3.376,8.552-4.384,12.836c-0.509,2.026-0.819,4.056-0.819,6.111
		c0.22,0.101,0.512,0.198,0.815,0.291c0.912,0.217,1.839,0.408,2.549,0.92l0.206,0.512c-0.299,0.617-1.428,0.609-1.615,0.209
		c-0.426-0.112-0.83-0.101-1.14-0.217c-0.501,0.008-0.815-0.093-1.114,0.104l1.118,11.202l0.415,4.377
		c-0.097,0.22-0.202,0.519-0.418,0.729c-0.714,1.107-1.925,2.34-1.013,3.248c0.516,0.508,0.815,1.226,1.009,1.944
		c0.822,2.333,0.422,5.491,2.138,7.337c1.039,0.505,1.757,1.32,2.25,2.131c1.319,2.549,0.725,5.902,1.73,8.653
		c0,0.209,0.105,0.508,0.206,0.718c1.114,0.004,2.037-0.209,2.751-0.602c1.521-0.725,2.441-2.045,3.566-2.867l2.553,1.831
		l17.706,12.738c0.101,3.966-0.703,8.148-2.845,10.795l-1.626,0.213c-4.582-3.158-9.18-6.526-13.243-10.286
		c-2.246-2.048-4.183-4.175-6.115-6.523c-0.194-0.202-0.396-0.52-0.617-0.721l-1.121-0.09c-0.71,0.901-0.104,2.336,0.31,3.248
		c0.411,1.02,0.927,2.037,1.435,2.964c1.73,3.151,3.764,5.689,6.108,8.238c4.485,4.896,10.088,9.064,15.998,13.766
		c1.013-0.007,1.402-0.617,1.82-0.927l5.413-13.751c1.013-4.893,2.034-9.89,7.117-12.122c0.119-2.34,0.119-4.583-1.622-4.784
		l-6.937,2.037c-8.145-2.646-16.181-9.173-21.781-15.987c-1.233-1.439-2.351-2.949-3.371-4.377l0.306-0.62
		c0.617,0.202,1.133-0.008,1.626-0.198l-0.299-6.627c-0.004-1.121-0.415-3.159,0.093-3.465l0.923-0.4
		c0.191-0.101,0.524-0.209,0.722-0.209c1.514-0.508,3.147-0.209,4.676,1.017c0.609-3.566-1.839-6.407-3.756-8.242
		c0.299-3.05,2.744-3.57,2.332-5.7c0.808-2.037-0.306-4.284-1.633-4.784c1.428-1.746,0.31-4.078,0.415-6.418
		c3.155-0.318,6.003-1.536,7.435-4.493c0.504-1.42,1.925-4.269,0.194-5.704c-1.936,0.807-4.68,2.145-6.926,2.033
		c-1.118-1.118-1.118-2.34-0.602-2.538l4.878-5.094c2.654,2.13,7.636,3.259,9.991-0.209c1.435-1.727,1.334-5.596,0.512-7.427
		l0.206-0.706c9.872,4.366,13.434-8.567,5.401-11.412c2.332,6.209-2.452,6.713-7.334,9.569l-0.523,0.202
		c-0.493,3.67-3.144,7.644-5.599,6.018c-1.42-0.519-2.239-2.347-2.654-3.271c-1.312-0.497-2.527,1.742-3.861,1.234l-0.927-0.721
		c9.797-14.051,24.139-25.26,37.498-33.708c5.382-2.553,11.303-6.111,17.31-8.246c1.525-0.624,2.961-1.035,4.486-1.327
		c2.246-0.516,4.474-0.721,6.717-0.415l-1.533,8.661l-2.538,5.603c-0.718,1.831-1.634,3.667-2.657,5.397
		c-1.312,2.243-2.848,4.269-4.489,6.31c-5.7,7.035-13.034,13.037-18.334,19.253l0.729,1.428l5.297,4.175l-0.112,1.219
		c-6.201,3.469-13.737,6.418-20.779,6.836c-1.521-0.919-1.615-3.678-2.949-5.304c-1.017,0.4-1.839,0.807-3.046,1.936
		c0.093,6.216,1.633,15.572,4.575,23.111c1.118,0.104,1.839,0.415,2.231,0.104l0.527-8.645l0.292-0.609
		c9.793,5.289,20.371,7.334,31.585,8.447c1.42,0.198,2.961,0.299,4.486,0.408c2.448,0.202,4.878,0.4,7.435,0.602
		c0.183,1.536-1.637,1.327-2.661,2.852l0.314,0.415l-0.811,12.828c-0.516,1.33-1.933,0.818-2.351,1.028
		c-0.912,0.4-1.017,1.622-1.013,2.74c-0.31,0.101-0.613,0.221-0.912,0.318c-0.62,0.101-1.017,0.202-0.923,0.602
		c-0.718,0.822,0.419,0.822,0.007,2.239c-1.028,0.419-1.028,1.536-1.428,1.738c-0.52,1.211-1.334,1.719-2.157,1.211
		c-0.101,0-0.187-0.101-0.187-0.101c-0.523,0.209-0.931-0.703-0.527-1.013c0.123-0.598,0.329-1.218,0.714-1.835
		c0.228-0.31,0.527-0.71,0.819-1.017l-0.819,0.008h-0.4c-1.929-0.823-3.353,2.127-3.065,4.167c0.008,1.226,1.536,2.149,2.46,2.86
		c-1.63,1.327-2.033,1.518-2.755,3.566c-0.393,1.82,1.237,2.747,1.839,4.067l-0.303,0.721c-0.815,0.408-1.536-0.919-2.448-0.512
		c-0.725,0.92-0.923,2.747-0.303,4.078c1.316,0.508,2.448,0.508,3.566,0.598c0.206,1.529,1.312,2.759,1.323,3.869l-5.808,10.492
		c-3.372,6.014-6.317,14.065-11.916,18.947l-5.21-11.101c0.527-1.424,0.822-3.159,0.329-4.175c0.097-2.243-1.835-1.831-2.975-3.061
		l-1.615,0.221c-3.046,7.734-5.293,16.095-11.3,22.703l-11.098-7.117c-2.549-2.145-5.113-4.194-7.341-6.422
		c-2.25-2.149-4.384-4.381-6.115-6.732c-1.114-1.619-2.13-3.252-2.949-4.983c-0.815-1.839-1.432-3.67-1.738-5.607
		c-0.299-1.839-0.396-3.764-0.198-5.805c-1.028-1.23-2.945-0.303-4.089-1.529c0.007-0.108-0.078-0.191-0.097-0.198l0,0
		c-0.912-2.149-1.828-4.276-2.751-6.317c-5.08-11.411-10.477-22.816-11.92-34.844c0.523-0.303,1.947-0.912,1.951-2.03
		c0.703-2.145-0.108-3.868-1.73-4.897c-1.136,0-1.342-0.4-2.06-0.706c4.803-2.852,9.999-6.919,13.767-11.812
		c1.013-1.334,1.929-2.65,2.736-4.082c1.447-2.437,2.452-4.986,2.961-7.734c1.024-4.885,1.237-12.929-1.817-17.127l-1.144,0.721
		l-2.736,1.839l-8.141,5.285c-1.835,0.92-3.271,2.654-4.384,1.536l0.703-23.941l-13.74,12.84l-10.182,9.475
		c-1.73-1.428-2.448-3.977-4.381-4.687l-0.92,0.4l-0.519,0.202c0,1.226,0,1.226,0.419,2.142
		c2.235,11.924-6.321,21.795-12.126,32.291l0.008,50.02C158.843,253.165,160.473,255.822,162.611,258.263L162.611,258.263
		L162.611,258.263z M323.128,150.602c0.101-0.011,0.209-0.108,0.415-0.108c0.303,0.916,0.815,1.835,1.005,2.254l-0.093,1.207
		c-0.404-0.198-0.714-0.609-1.327-1.207c-0.314-0.31-0.706-0.628-1.327-1.02C321.802,151.727,322.321,151.01,323.128,150.602
		L323.128,150.602L323.128,150.602z M323.132,164.458c0.206-0.202,0.303-0.31,0.411-0.52c0.815,1.641,0.905,3.977-0.403,5.91
		c-0.101,0.209-0.325,0.407-0.516,0.609c-0.299-0.101-0.598-0.31-0.927-0.501c-0.389-0.31-0.916-0.822-1.316-1.327
		c-0.411-0.516-0.804-1.114-1.02-1.622c0.206-0.508,0.609-0.826,1.024-1.035c0.4-0.292,0.923-0.392,1.323-0.707
		C322.224,165.056,322.725,164.761,323.132,164.458L323.132,164.458L323.132,164.458z M320.389,177.081
		c0.392,0.609,0.811,1.118,1.114,1.828c-0.4,0.31-0.718,0.617-1.114,0.919c-1.218,1.121-2.661,2.049-4.28,2.856
		c-3.472,1.94-7.449,3.26-11.31,4.99l-14.275,5.595l8.873-8.653c0.325,0.407,0.419,2.045,1.335,2.755
		c1.417,0.512,3.244,0.804,4.99,0c0.493-1.428,2.34-2.246,1.835-4.784c-0.535-0.927-0.202-1.637-1.641-2.037
		c-0.4,0.101-2.034,0.299-2.848-0.411l8.963-10.904c1.319,0.512,1.742,1.439,2.654,2.138l-0.318,0.718
		c-2.034-0.706-4.37,0.307-5.708,2.134c-0.714,0.826-0.292,2.848,0.826,4.074c0.807,1.839,3.05,0.718,5.401-0.31
		c-0.202-0.497,1.009-1.521,1.222-2.239c0.912-0.393,0.509-1.319-0.003-2.235C317.836,174.334,319.275,175.649,320.389,177.081
		L320.389,177.081L320.389,177.081z M316.105,156.205c0.314-0.202,0.617-0.31,0.815-0.508c0.504,0.908,2.755,1.009,3.151,3.046
		c-0.804,1.338-2.441,1.846-3.962,2.751c-0.202,0.206-0.501,0.307-0.718,0.508l-1.846-0.202c0,0-0.493,0.202-0.788-0.707
		l-0.52-0.923C312.756,158.945,314.472,157.225,316.105,156.205L316.105,156.205L316.105,156.205z M290.131,239.824
		c-0.392,0.004-0.714-0.501-1.121-1.42c0.303-0.217,0.729-0.407,1.129-0.617c0.093,0,0.198,0.007,0.299-0.108l0.609,0.217
		c0.318,0.508,0.004,1.222-0.202,1.828C290.531,239.824,290.336,239.929,290.131,239.824L290.131,239.824L290.131,239.824z
		 M285.653,244.414c0.516-0.31,1.23-1.133,0.703-2.052l-0.191-0.508l-0.523,0.217l-0.908,0.393l0.912,1.85L285.653,244.414
		L285.653,244.414L285.653,244.414z M228.614,207.429l0.101,0.011c0.303-0.718,1.226-1.133,1.024-1.641l-0.202-0.393
		c-0.419,0.093-0.714,0.303-0.923,0.4c-0.721,0.307-1.013,0.606-1.226,1.125l0.318,0.407L228.614,207.429L228.614,207.429
		L228.614,207.429z M222.506,191.741l0.101,0.011l0.908,0.699c0,1.028-0.4,1.327-1.009,1.944c-0.004,0.101-0.105,0.202-0.206,0.31
		l-0.194-0.508c-0.523,0.198-0.718-1.334-0.426-2.037L222.506,191.741L222.506,191.741L222.506,191.741z M219.553,202.543
		l0.198,0.112c1.219-0.011,1.637,2.033,0.621,2.433c-0.419,0.209-0.011,1.118-0.826,1.525c0,0.097-0.097,0.108-0.097,0.108
		c-0.198-0.516-0.916,0.4-1.334-0.508c0.008-1.215,0.008-2.344,0.624-3.671H219.553L219.553,202.543L219.553,202.543z
		 M217.819,216.201l0.4,0.09l0.916,0.62l-0.4,5.289c-0.396-0.4-0.718-1.009-0.919-1.622c-0.617-1.23-1.017-2.545-1.432-3.465
		l0.706-0.912H217.819L217.819,216.201L217.819,216.201z M213.434,269.97l-0.823,0.415c0,0-0.912-0.718-1.839-1.432l0.232-0.71
		c0.09-0.818,1.114-1.424,2.422-1.835c0.527-0.198,1.02-0.31,1.544-0.407l0.71,0.198c0.198,0.52,0.695,1.327,0.101,1.536
		c-0.426,1.319-1.428,1.731-2.261,2.131L213.434,269.97L213.434,269.97L213.434,269.97z M210.672,264.468l-1.32,0.198l-0.191-1.626
		c0,0,0.703-0.299,1.51-0.706c0.101,0.007,0.228-0.105,0.336-0.105h1.102c0.501,0.912-0.411,1.32-1.117,2.239H210.672
		L210.672,264.468L210.672,264.468z M185.127,204.27c-3.767,4.904-6.523,10.604-7.334,16.607c-2.549,9.165-1.237,19.145-2.25,29.129
		c-0.011,2.34-1.428,4.179-3.248,5.001c-5.21-1.533-6.421-7.748-8.866-11.614c-6.631-13.243-3.977-31.787,3.551-44.409l6.825-12.122
		c0.92-0.4,1.727,1.413,1.947,1.94c-0.71,1.936-2.456,4.467,0.493,5.902l8.878-7.035l1.42-1.118c0-1.117,0-2.235-1.211-2.743
		c-0.112-0.105-0.105-0.206-0.206-0.202c-0.617-0.613-1.742-0.213-2.16-1.02c-0.598-1.338-2.325-2.751-2.329-5.094l4.489-4.893
		l5.891-6.62l0.617,17.007c6.923-0.919,12.428-4.579,18.218-7.835l0.721,0.299c0.329,5.408-5.083,10.802-9.169,15.486
		C195.403,193.987,189.486,198.678,185.127,204.27L185.127,204.27L185.127,204.27z"/>
	<polygon style="fill-rule:evenodd;clip-rule:evenodd;fill:#FCB813;" points="414.093,391.584 413.469,366.224 430.689,367.046 
		426.312,391.584 414.093,391.584 414.093,391.584 	"/>
	<path style="fill-rule:evenodd;clip-rule:evenodd;fill:#FCB813;" d="M425.904,401.053c0.007-3.248-3.061-5.899-6.836-5.902
		c-3.768,0-6.818,2.643-6.807,5.902c0,3.367,3.039,6.01,6.807,6.01C422.843,407.074,425.904,404.42,425.904,401.053L425.904,401.053
		L425.904,401.053z"/>
	<polygon style="fill-rule:evenodd;clip-rule:evenodd;fill:#FCB813;" points="346.251,367.446 373.44,367.745 374.778,378.244 
		362.862,389.652 373.451,389.959 375.088,400.249 344.931,399.95 345.242,390.568 360.413,376.506 345.746,377.325 
		346.251,367.446 346.251,367.446 	"/>
	<polygon style="fill-rule:evenodd;clip-rule:evenodd;fill:#FCB813;" points="317.832,366.836 349.51,374.267 346.86,383.851 
		329.139,392.706 346.651,396.38 339.844,406.655 306.432,399.539 309.187,389.66 329.027,379.257 314.692,376.218 317.832,366.836 
		317.832,366.836 	"/>
	<polygon style="fill-rule:evenodd;clip-rule:evenodd;fill:#FCB813;" points="299.102,406.973 294.415,377.116 307.542,372.23 
		312.24,402.279 299.102,406.973 299.102,406.973 	"/>
	<polygon style="fill-rule:evenodd;clip-rule:evenodd;fill:#FCB813;" points="237.065,390.979 236.456,365.614 253.672,366.537 
		249.183,390.979 237.065,390.979 237.065,390.979 	"/>
	<path style="fill-rule:evenodd;clip-rule:evenodd;fill:#FCB813;" d="M248.876,400.451c0-3.158-3.054-5.917-6.829-5.917
		c-3.764,0-6.821,2.759-6.807,5.917c0,3.364,3.043,6.007,6.814,6.007C245.826,406.458,248.876,403.815,248.876,400.451
		L248.876,400.451L248.876,400.451z"/>
	<polygon style="fill-rule:evenodd;clip-rule:evenodd;fill:#FCB813;" points="169.238,366.832 196.434,367.143 197.746,377.534 
		185.83,389.035 196.423,389.346 198.064,399.64 167.907,399.329 168.203,390.048 183.397,375.897 168.726,376.716 169.238,366.832 
		169.238,366.832 	"/>
	<polygon style="fill-rule:evenodd;clip-rule:evenodd;fill:#FCB813;" points="140.819,366.122 172.49,373.658 169.832,383.242 
		152.115,392.205 169.645,395.771 162.828,406.058 129.389,398.93 132.147,389.035 152.021,378.749 137.649,375.59 140.819,366.122 
		140.819,366.122 	"/>
	<polygon style="fill-rule:evenodd;clip-rule:evenodd;fill:#FCB813;" points="122.081,406.364 117.39,376.626 130.529,371.632 
		135.216,401.778 122.081,406.364 122.081,406.364 	"/>
	<polygon style="fill-rule:evenodd;clip-rule:evenodd;fill:#231F20;" points="348.916,297.885 348.912,292.988 339.844,297.885 
		348.916,297.885 348.916,297.885 	"/>
	<path style="fill-rule:evenodd;clip-rule:evenodd;fill:#FFFFFF;" d="M316,227.505c8.358-6.212,19.055-13.348,27.713-21.298
		c-3.678-14.047-7.435-28.008-14.253-40.537c-1.843,5.805-4.295,12.63-2.867,18.14c1.626,1.009,3.061-0.815,3.465-2.15l6.833,23.122
		c-7.031,6.732-15.089,11.008-23.743,17.837l-3.562,2.239l3.57,5.083L316,227.505L316,227.505L316,227.505z"/>
	<path style="fill-rule:evenodd;clip-rule:evenodd;fill:#F48120;" d="M305,218.134c3.973,24.539,1.215,51.227-4.68,72.413
		c-1.117,0-1.839-0.299-2.956-1.424c2.138-18.547,8.257-39.116,4.074-59.069c-1.222,10.784-4.28,19.953-7.946,28.912l-14.268,26.288
		l-5.7,11.61l0.426,0.919l23.018-0.008l-0.415-0.912l2.444-1.832l1.424,2.744l2.945,0.008l-2.026-3.768l7.435-4.594l4.28,8.354
		h3.861l-4.874-9.875l2.546-1.828l5.188,9.984l6.014-3.88l-3.065-5.285l-0.92,0.4l1.738,3.775l-2.56,1.615l-4.067-7.536l7.442-4.68
		l7.027,14.26l-5.697,3.05h11.4h2.65l9.042-4.997l0.015-13.232c-3.865-5.393-7.734-10.903-11.707-16.297
		C326.388,248.272,315.492,233.212,305,218.134L305,218.134L305,218.134z M337.093,291.668l-2.448,1.529l-7.435-13.95l2.542-1.742
		l5.506,9.793l1.835-1.035l4.485-2.53l-3.267-5.824l-0.718,0.927l1.533,3.252l-2.041,1.443l-0.512,0.392l-4.687-7.427l5.207-2.852
		l2.452-1.424l7.435,13.542L337.093,291.668L337.093,291.668L337.093,291.668z"/>
	<polygon style="fill-rule:evenodd;clip-rule:evenodd;fill:#F48120;" points="307.344,295.944 306.432,296.247 307.138,297.885 
		308.57,297.873 307.344,295.944 307.344,295.944 	"/>
	<polygon style="fill-rule:evenodd;clip-rule:evenodd;fill:#231F20;" points="301.539,294.117 303.584,297.873 307.138,297.885 
		306.432,296.247 307.344,295.944 308.57,297.873 313.145,297.873 308.973,289.639 301.539,294.117 301.539,294.117 	"/>
	<polygon style="fill-rule:evenodd;clip-rule:evenodd;fill:#231F20;" points="299.188,295.242 296.65,296.957 297.072,297.885 
		300.612,297.873 299.188,295.242 299.188,295.242 	"/>
	<polygon style="fill-rule:evenodd;clip-rule:evenodd;fill:#231F20;" points="324.456,280.668 317.014,285.247 321.204,292.891 
		323.742,291.066 322.011,287.501 322.938,286.981 325.992,292.274 319.873,296.247 314.681,286.271 312.236,287.998 
		317.122,297.873 325.884,297.873 331.587,294.827 324.456,280.668 324.456,280.668 	"/>
	<polygon style="fill-rule:evenodd;clip-rule:evenodd;fill:#231F20;" points="347.069,285.863 339.736,272.43 332.088,276.497 
		336.671,283.931 339.228,282.197 337.687,279.038 338.413,278.13 341.679,283.931 335.46,287.389 329.76,277.61 327.307,279.348 
		334.832,293.298 347.069,285.863 347.069,285.863 	"/>
	<path style="fill-rule:evenodd;clip-rule:evenodd;fill:#FFFFFF;" d="M286.356,242.362l-0.191-0.508l-1.431,0.609l0.919,1.951
		C286.169,244.104,286.883,243.282,286.356,242.362L286.356,242.362L286.356,242.362z"/>
	<path style="fill-rule:evenodd;clip-rule:evenodd;fill:#FFFFFF;" d="M290.845,239.724c0.206-0.606,0.519-1.32,0.202-1.828
		l-0.609-0.217c-0.516,0.209-1.024,0.407-1.428,0.725C289.637,239.724,289.937,240.138,290.845,239.724L290.845,239.724
		L290.845,239.724z"/>
	<path style="fill-rule:evenodd;clip-rule:evenodd;fill:#FFFFFF;" d="M211.005,268.243l-0.232,0.71
		c0.927,0.714,1.839,1.432,1.839,1.432l0.908-0.519c0.834-0.4,1.835-0.811,2.261-2.131c0.594-0.209,0.097-1.017-0.101-1.536
		l-0.71-0.198C212.93,266.408,211.09,267.118,211.005,268.243L211.005,268.243L211.005,268.243z"/>
	<path style="fill-rule:evenodd;clip-rule:evenodd;fill:#FFFFFF;" d="M210.994,264.468c0.706-0.919,1.618-1.327,1.117-2.239h-1.102
		c-0.923,0.411-1.847,0.811-1.847,0.811l0.191,1.626L210.994,264.468L210.994,264.468L210.994,264.468z"/>
	<path style="fill-rule:evenodd;clip-rule:evenodd;fill:#F48120;" d="M163.429,243.394c0.606,0.908,1.133,1.929,1.525,2.957
		c1.312,2.848,2.654,5.898,5.203,7.633c0.299,0.209,0.501,0.299,0.8,0.508c0.415,0.206,0.807,0.4,1.338,0.516
		c0.606-0.314,1.103-0.624,1.626-1.133c0.923-0.908,1.619-2.235,1.622-3.868c1.013-9.984-0.299-19.964,2.25-29.129
		c0.404-2.953,1.211-5.805,2.422-8.545c1.544-3.274,3.473-6.324,5.831-9.169c1.106-1.331,2.231-2.561,3.446-3.779
		c3.274-3.147,7.042-5.798,10.81-7.835c0.407-0.213,0.807-0.407,1.103-0.613c3.996-4.594,9.068-9.689,9.176-14.877v-0.31
		c-0.007-0.101,0-0.198-0.007-0.299l-0.721-0.299c-3.14,1.831-6.291,3.656-9.55,5.188c-2.657,1.319-5.517,2.235-8.668,2.646
		l-0.617-17.007l-1.525,1.626l-3.458,3.869l-5.397,6.018c0.004,2.344,1.73,3.756,2.329,5.094c0.527,0.916,1.839,0.307,2.366,1.223
		c0.299,0.097,0.497,0.299,0.706,0.497c0.505,0.512,0.505,1.439,0.505,2.246l-0.497,0.419l-5.831,4.572l-3.97,3.162
		c-2.949-1.435-1.203-3.966-0.493-5.902c-0.22-0.527-1.035-2.149-1.828-1.951c-0.12,0.011-0.12,0.011-0.12,0.011l-2.844,4.99
		l-0.804,1.525l-3.177,5.607c-0.706,1.219-1.304,2.437-2.022,3.768C159.045,215.065,157.423,231.381,163.429,243.394
		L163.429,243.394L163.429,243.394z M200.292,187.476l-0.303,0.194c-0.505,0.206-1.63,0.206-2.034-0.807
		c-0.908-0.62-0.819-1.839-0.419-3.155c0.823-0.923,1.847-1.742,2.766-1.94c0.912-0.209,1.727-0.011,2.347,0.718
		c0.818,0.714,1.009,2.34,0.295,3.248c-0.4,1.338-1.641,1.226-2.553,1.742H200.292L200.292,187.476L200.292,187.476z M189.49,193.58
		c-0.49,0.108-1.521,0-2.228-0.602c-0.202-0.408-0.916-0.725-0.617-2.557c-0.198-0.411,0.714-0.912,1.103-1.118
		c0.434-0.912,0.942-1.319,1.738-1.521c0.419-0.007,0.916-0.007,1.544,0.094c0.908,0.706,1.832,1.428,1.338,2.762
		c-0.228,0.602-0.919,2.631-2.556,2.841C189.714,193.487,189.606,193.58,189.49,193.58L189.49,193.58L189.49,193.58z
		 M186.047,173.414c0.388-0.108,0.703-0.108,1.11-0.101c1.319,0.512,1.734,1.42,1.533,3.259c0.004,1.129-1.136,2.146-2.643,2.961
		c-0.101,0.097-0.322,0.093-0.423,0.202l-0.721-0.303c-0.89-0.721-1.925-1.843-1.417-3.263
		C183.494,175.35,184.616,173.934,186.047,173.414L186.047,173.414L186.047,173.414z M180.216,202.943c0,0,0,0-0.101,0.011
		c0,0-1.114-0.011-1.824-0.202c-0.4-0.92-1.11-2.34-0.097-3.876c0.404-0.202,0.512-1.312,0.811-2.041
		c0.202-0.09,0.725-0.191,1.211-0.198c0.52,0,0.924,0,1.439,0.008c1.118,1.211,1.536,3.259,0.823,4.167
		C181.962,202.031,181.143,202.539,180.216,202.943L180.216,202.943L180.216,202.943z M173.925,220.477
		c-1.017,0.101-1.746-0.617-2.153-1.734c-0.404-0.512-0.598-0.919-0.811-1.432c-0.299-0.811-0.213-1.727,0-2.646
		c0.093-0.408,0.31-0.908,0.508-1.424c0.826-0.707,1.544-1.024,2.456-1.215c0.303-0.209,0.699-0.322,1.114-0.519
		c1.839,1.435,2.239,3.469,1.73,6.018c-0.112,1.107-0.508,2.535-2.153,2.635C174.325,220.369,174.12,220.377,173.925,220.477
		L173.925,220.477L173.925,220.477z M173.921,202.031c-0.516,0.101-1.009,0.314-1.933,0.314c-0.628-0.613-0.927-1.33-1.032-2.149
		c-0.004-0.299,0-0.508,0-0.811c0.097-0.613,0.213-1.222,0.512-1.82c0.516-0.826,1.533-1.338,2.456-1.738
		c0.194-0.108,0.299-0.206,0.504-0.206c1.521,0.908,1.731,2.452,1.921,4.074c-0.194,0.71-1.208,2.247-2.325,2.247L173.921,202.031
		L173.921,202.031L173.921,202.031z M170.957,240.838c-0.194,0.101-0.493,0-0.796-0.101c-0.318-0.09-0.83-0.191-1.435-0.4
		c-1.734-1.424-1.637-3.775-1.118-6.216c0.299-0.71,0.299-0.71,1.005-1.626l1.544-0.105c0.299,0.097,0.606,0.202,0.8,0.505
		c0.912,0.815,1.738,2.452,2.045,3.166c0.194,1.619,0.108,3.861-1.731,4.777C171.174,240.845,171.062,240.845,170.957,240.838
		L170.957,240.838L170.957,240.838z M170.961,212.333c-0.299,0.101-0.505,0.4-0.804,0.609c-0.512,0.501-0.919,1.114-1.73,1.114
		l-0.524,0.202c-1.114,0.008-1.742-1.417-2.344-2.751c-0.703-1.417-0.606-3.66,1.23-4.575c0-1.125,1.413-0.624,2.845-1.223
		c0.209,0.198,0.4,0.497,0.519,0.811c0.408,0.602,0.699,1.327,0.8,2.146C171.271,209.78,171.271,211.107,170.961,212.333
		L170.961,212.333L170.961,212.333z M164.954,230.454c-0.519-0.101-1.226-0.411-1.727-1.02c-0.404-0.92-1.54-3.267-0.83-5.289
		c0.112-1.125,0.916-1.536,2.456-2.145l0.101-0.008l1.223,0.419c1.529,1.017,1.73,3.757,1.633,6.003
		c0.194,0.407-0.501,0.213-1.439,1.73C165.964,230.342,165.459,230.461,164.954,230.454L164.954,230.454L164.954,230.454z"/>
	<path style="fill-rule:evenodd;clip-rule:evenodd;fill:#F48120;" d="M316.105,173.515c0.512,0.916,0.916,1.843,0.003,2.235
		c-0.213,0.718-1.424,1.742-1.222,2.239c-2.351,1.028-4.594,2.15-5.401,0.31c-1.118-1.226-1.54-3.248-0.826-4.074
		c1.338-1.828,3.674-2.84,5.708-2.134l0.318-0.718c-0.912-0.699-1.335-1.626-2.654-2.138l-8.963,10.904
		c0.815,0.71,2.448,0.512,2.848,0.411c1.439,0.4,1.106,1.11,1.641,2.037c0.504,2.538-1.342,3.357-1.835,4.784
		c-1.746,0.804-3.573,0.512-4.99,0c-0.916-0.71-1.009-2.347-1.335-2.755l-8.873,8.653l14.275-5.595
		c6.025-2.639,12.425-4.59,16.704-8.765C320.486,176.573,318.453,174.734,316.105,173.515L316.105,173.515L316.105,173.515z"/>
	<path style="fill-rule:evenodd;clip-rule:evenodd;fill:#FFFFFF;" d="M217.09,216.201l-0.706,0.912
		c0.718,1.32,1.229,3.865,2.351,5.087l0.4-5.289l-0.916-0.62L217.09,216.201L217.09,216.201L217.09,216.201z"/>
	<path style="fill-rule:evenodd;clip-rule:evenodd;fill:#FFFFFF;" d="M319.361,167.008c0.602,1.316,1.932,2.938,3.263,3.45
		c1.929-2.03,1.828-4.676,0.919-6.519C322.616,165.471,320.288,165.371,319.361,167.008L319.361,167.008L319.361,167.008z"/>
	<path style="fill-rule:evenodd;clip-rule:evenodd;fill:#231F20;" d="M170.157,232.39l-1.544,0.105
		c-0.707,0.916-0.707,0.916-1.005,1.626c-0.519,2.441-0.617,4.792,1.118,6.216c1.432,0.501,2.022,0.699,2.545,0.501
		c1.839-0.916,1.925-3.158,1.731-4.777C172.591,235.148,171.477,232.801,170.157,232.39L170.157,232.39L170.157,232.39z"/>
	<path style="fill-rule:evenodd;clip-rule:evenodd;fill:#FFFFFF;" d="M229.537,205.406c-1.435,0.602-1.835,0.8-2.149,1.525
		l0.318,0.407l1.009,0.101c0.303-0.718,1.226-1.133,1.024-1.641L229.537,205.406L229.537,205.406L229.537,205.406z"/>
	<path style="fill-rule:evenodd;clip-rule:evenodd;fill:#FFFFFF;" d="M219.751,202.655l-1.013-0.112
		c-0.617,1.327-0.617,2.456-0.624,3.671c0.419,0.908,1.136-0.008,1.334,0.508c0.912-0.516,0.505-1.424,0.924-1.634
		C221.388,204.689,220.97,202.644,219.751,202.655L219.751,202.655L219.751,202.655z"/>
	<path style="fill-rule:evenodd;clip-rule:evenodd;fill:#FFFFFF;" d="M313.545,161.801l1.846,0.202c1.63-1.222,3.66-1.63,4.68-3.26
		c-0.396-2.037-2.646-2.138-3.151-3.046c-1.828,0.916-4.164,3.046-4.684,4.474l0.52,0.923
		C313.051,162.003,313.545,161.801,313.545,161.801L313.545,161.801L313.545,161.801z"/>
	<path style="fill-rule:evenodd;clip-rule:evenodd;fill:#231F20;" d="M163.228,229.433c1.009,1.218,2.231,1.23,3.144,0.71
		c0.938-1.518,1.633-1.323,1.439-1.73c0.097-2.246-0.104-4.987-1.633-6.003l-1.323-0.411c-1.54,0.609-2.344,1.02-2.456,2.145
		C161.687,226.167,162.824,228.514,163.228,229.433L163.228,229.433L163.228,229.433z"/>
	<path style="fill-rule:evenodd;clip-rule:evenodd;fill:#FFFFFF;" d="M321.802,151.727c1.629,1.009,2.052,1.929,2.654,2.228
		l0.093-1.207c-0.191-0.419-0.703-1.338-1.005-2.254C322.527,150.909,321.802,151.727,321.802,151.727L321.802,151.727
		L321.802,151.727z"/>
	<path style="fill-rule:evenodd;clip-rule:evenodd;fill:#231F20;" d="M175.039,211.507c-1.342,0.609-2.46,0.609-3.57,1.734
		c-0.823,2.034-1.118,3.872,0.303,5.502c0.617,1.316,1.432,2.134,2.844,1.417c1.645-0.101,2.041-1.529,2.153-2.635
		C177.278,214.975,176.878,212.942,175.039,211.507L175.039,211.507L175.039,211.507z"/>
	<path style="fill-rule:evenodd;clip-rule:evenodd;fill:#FFFFFF;" d="M221.68,192.16c-0.291,0.703-0.097,2.235,0.426,2.037
		l0.194,0.508c0.714-0.927,1.218-1.125,1.215-2.254l-0.908-0.699L221.68,192.16L221.68,192.16L221.68,192.16z"/>
	<path style="fill-rule:evenodd;clip-rule:evenodd;fill:#231F20;" d="M167.903,214.258l0.524-0.202c1.118,0,1.618-1.323,2.534-1.723
		c0.516-2.553-0.097-5.102-1.327-6.624c-1.432,0.598-2.845,0.097-2.845,1.223c-1.835,0.916-1.933,3.158-1.23,4.575
		C166.162,212.841,166.79,214.265,167.903,214.258L167.903,214.258L167.903,214.258z"/>
	<path style="fill-rule:evenodd;clip-rule:evenodd;fill:#231F20;" d="M180.115,202.954c0.93-0.31,1.85-0.822,2.362-2.142
		c0.714-0.908,0.295-2.956-0.823-4.167c-1.121,0-2.25-0.008-2.65,0.191c-0.299,0.729-0.407,1.839-0.811,2.041
		c-1.013,1.536-0.303,2.956,0.097,3.876C179.001,202.943,180.115,202.954,180.115,202.954L180.115,202.954L180.115,202.954z"/>
	<path style="fill-rule:evenodd;clip-rule:evenodd;fill:#231F20;" d="M174.026,201.942c1.117,0,2.13-1.536,2.325-2.247
		c-0.191-1.622-0.4-3.166-1.921-4.074c-0.93,0.299-2.239,1.017-2.96,1.944c-0.823,2.03-0.606,3.558,0.519,4.781
		C173.103,202.345,173.608,202.132,174.026,201.942L174.026,201.942L174.026,201.942z"/>
	<path style="fill-rule:evenodd;clip-rule:evenodd;fill:#231F20;" d="M187.748,189.304c-0.389,0.206-1.301,0.707-1.103,1.118
		c-0.299,1.832,0.415,2.149,0.617,2.557c0.916,0.699,2.033,0.699,2.549,0.501c1.637-0.209,2.329-2.239,2.556-2.841
		c0.494-1.334-0.43-2.056-1.338-2.762C189.194,187.57,188.372,187.977,187.748,189.304L187.748,189.304L187.748,189.304z"/>
	<path style="fill-rule:evenodd;clip-rule:evenodd;fill:#231F20;" d="M197.956,186.863c0.404,1.013,1.529,1.013,2.034,0.807
		l0.403-0.194c0.912-0.516,2.153-0.404,2.553-1.742c0.714-0.908,0.523-2.534-0.295-3.248c-1.346-1.626-3.667-0.508-5.114,1.223
		C197.137,185.024,197.048,186.243,197.956,186.863L197.956,186.863L197.956,186.863z"/>
	<path style="fill-rule:evenodd;clip-rule:evenodd;fill:#231F20;" d="M188.69,176.573c0.202-1.839-0.213-2.747-1.533-3.259
		c-1.824-0.198-3.671,1.839-3.671,2.856c-0.508,1.42,0.527,2.541,1.417,3.263l0.721,0.303
		C187.453,178.909,188.701,177.799,188.69,176.573L188.69,176.573L188.69,176.573z"/>
	<path style="fill:#231F20;" d="M155.139,139.15c1.364-1.009,1.73-1.301,2.03-1.521c16.858-12.608,44.245-33.102,95.894-33.102
		l0.015,0.007c47.011,0.011,78.614,21.59,92.755,31.256c1.985,1.342,3.592,2.452,4.781,3.177l1.675,1.02l0.004,1.959l-0.004,155.928
		l0.004,3.51l-3.51-0.011H157.206h-3.491l-0.004-3.487l0.011-155.939l-0.011-1.746L155.139,139.15L155.139,139.15L155.139,139.15z
		 M161.355,143.201c-0.213,0.164-0.449,0.314-0.65,0.475l0.004,150.71h184.604V143.852c-1.005-0.665-2.142-1.424-3.401-2.303
		c-13.587-9.277-43.957-30.03-88.849-30.041h-0.008C203.697,111.508,177.469,131.132,161.355,143.201L161.355,143.201
		L161.355,143.201z"/>
	<path style="fill-rule:evenodd;clip-rule:evenodd;fill:#231F20;" d="M39.37,300.232l-0.008,44.611l-6.205,3.159
		c-4.186,2.434-1.629,7.528,2.138,7.121c11.109-0.602,21.078-1.327,30.127-0.602c5.614,1.925,9.278,1.933,11.004-0.007
		c0.202-5.603,1.936-10.585,4.1-15.49c2.531-8.65-3.083-10.791-8.466-3.764c-3.356,4.792-5.098,8.668-12.327,10.6
		c-3.573-0.007-5.697-1.432-6.097-4.893v-40.742c5.499-4.381,7.532-5.398,7.334-6.724c1.013-2.434-0.415-5.192-5.92-3.66
		c-5.401,0.4-11.602,0.598-17.003-0.202c-1.936-0.725-3.869-0.725-5.607,1.218c-0.62,2.65-0.213,4.987,1.518,5.199
		C36.926,296.856,38.668,297.985,39.37,300.232L39.37,300.232L39.37,300.232z"/>
	<path style="fill-rule:evenodd;clip-rule:evenodd;fill:#231F20;" d="M149.057,292.689c-3.457,1.637-2.142,4.676,0.209,4.688
		c3.469,0,4.788,1.125,5.409,3.255l0.194,45.729c-1.533,2.34-3.162,3.158-6.616,4.683c-0.31,1.731,0.191,2.751,1.626,3.069
		c7.434-1.118,14.974-1.118,21.896,0c1.629-0.508,2.149-3.667-0.109-4.086c-2.941-0.501-4.067-1.618-5.39-3.469l0.094-51.534
		c0.811-3.566-0.094-7.943-6.299-5.595C158.342,291.765,154.047,292.274,149.057,292.689L149.057,292.689L149.057,292.689z"/>
	<path style="fill-rule:evenodd;clip-rule:evenodd;fill:#231F20;" d="M77.668,312.036c-3.566,1.327-2.145,4.493,0.194,4.486
		c3.372,0.198,5.409,1.327,5.914,3.26v26.58c-1.316,2.34-2.662,3.158-6.111,4.695c-0.408,1.719,0.209,2.74,1.529,3.057
		c7.431-1.118,14.959-1.118,22.001,0c1.536-0.508,2.131-3.678-0.198-4.078c-2.852-0.516-5.001-1.634-6.216-3.476l0.194-32.373
		c0.823-3.469-0.194-7.749-6.302-5.607C86.83,311.127,82.658,311.434,77.668,312.036L77.668,312.036L77.668,312.036z"/>
	<path style="fill-rule:evenodd;clip-rule:evenodd;fill:#231F20;" d="M83.267,299.925c1.129-1.831,3.772-2.968,6.923-2.968
		c3.97,0,7.334,2.145,7.337,4.702c-0.004,2.53-3.379,4.568-7.334,4.575c-4.071,0-7.337-2.045-7.337-4.583
		C82.856,301.032,83.051,300.434,83.267,299.925L83.267,299.925L83.267,299.925z"/>
	<path style="fill-rule:evenodd;clip-rule:evenodd;fill:#231F20;" d="M185.931,333.629l17.314,0.011
		c2.755-10.193-0.209-19.87-9.991-24.864c-9.666-1.518-17.714,1.529-21.582,13.953c-4.063,10.899-0.202,26.18,7.853,30.875
		c4.885,2.631,10.081,2.639,15.691,0c4.067-2.149,6.612-5.005,7.322-8.762c0.923-3.977-2.74-6.119-6.003-1.533
		c-4.295,5.289-8.877,5.289-12.525,0.408c-3.069-4.695-3.469-11.21-2.445-17.826c0.295-6.32,2.03-10.791,6.302-11.109
		c4.594,1.746,6.014,7.132,4.078,12.738l-5.999,1.94C182.066,329.054,182.059,333.629,185.931,333.629L185.931,333.629
		L185.931,333.629z"/>
	<path style="fill-rule:evenodd;clip-rule:evenodd;fill:#231F20;" d="M319.563,333.629l17.43,0.011
		c2.643-10.193-0.202-19.87-10.081-24.857c-9.688-1.533-17.732,1.521-21.597,13.953c-4.078,10.892-0.209,26.18,7.842,30.867
		c4.885,2.639,10.081,2.639,15.68,0c3.958-2.149,6.519-4.994,7.341-8.773c1.017-3.97-2.759-6.097-6.021-1.521
		c-4.16,5.289-8.863,5.289-12.526,0.408c-3.042-4.684-3.457-11.203-2.538-17.822c0.4-6.317,2.131-10.802,6.407-11.113
		c4.587,1.746,6.022,7.132,4.071,12.731l-5.992,1.944C315.694,329.05,315.705,333.629,319.563,333.629L319.563,333.629
		L319.563,333.629z"/>
	<path style="fill-rule:evenodd;clip-rule:evenodd;fill:#231F20;" d="M252.341,306.436c0.213-8.862-3.05-12.936-8.354-9.27
		c-8.963,8.451-10.881,25.369-4.99,42.275c4.272,9.468,10.088,9.258,15.067,4.276l4.594-8.051c5.7-5.095,8.047-4.175,7.035,3.166
		c-2.751,5.999-4.687,11.804-5.495,16.088h-7.85c-10.294,2.243-17.527-1.936-23.227-8.858c-11-23.014-7.842-39.625,4.676-52.147
		c5.009-3.267,10.414-6.213,16.611-4.784l6.934,1.727c5.499-2.549,7.835-1.218,7.016,3.768l-4.878,13.135
		C257.126,312.043,252.954,312.645,252.341,306.436L252.341,306.436L252.341,306.436z"/>
	<path style="fill-rule:evenodd;clip-rule:evenodd;fill:#231F20;" d="M283.616,314.985c4.283-0.191,5.801,3.065,4.482,10.399
		c-7.132,0.707-13.557,3.671-18.94,9.475c-4.384,6.515-3.461,14.768,2.336,19.243c4.388,1.428,8.75,1.839,13.135,0.411
		c3.667-2.751,3.66-4.994-0.007-6.717c-10.373,1.312-5.595-16.297,3.88-15.478v17.62c0.31,3.046,1.33,4.575,3.069,4.582
		l14.346-0.007c1.02-1.129,1.641-3.457,0-4.587c-2.332-1.226-3.97-2.34-5.899-5.906v-22.3c-2.646-8.859-6.014-13.752-11.527-13.135
		c-4.261-0.008-8.646,0.191-12.929,0.198c-4.268,0-5.181,9.977-5.383,13.337c0.497,4.373,3.256,3.465,5.887,1.634
		C277.912,319.571,280.244,316.72,283.616,314.985L283.616,314.985L283.616,314.985z"/>
	<path style="fill-rule:evenodd;clip-rule:evenodd;fill:#231F20;" d="M387.696,314.783c4.482-0.404,6.018,3.065,4.582,10.189
		c-7.117,0.919-13.434,3.869-18.838,9.475c-4.676,6.511-3.465,14.862,2.358,19.347c4.373,1.334,8.653,1.734,13.138,0.318
		c3.558-2.657,3.57-4.796,0-6.736c-10.485,1.54-5.603-16.088,3.76-15.277v17.426c0.4,3.248,1.435,4.784,3.155,4.575h14.268
		c1.121-0.908,1.742-3.248,0.003-4.583c-2.347-1.118-3.876-2.34-5.823-5.599l0.007-22.405c-2.631-8.862-6.209-13.748-11.61-13.146
		c-4.183,0-8.653,0.008-12.925,0.008c-4.194,0.202-5.211,9.976-5.413,13.344c0.617,4.575,3.368,3.663,6.025,1.925
		C382.104,319.369,384.444,316.32,387.696,314.783L387.696,314.783L387.696,314.783z"/>
	<path style="fill-rule:evenodd;clip-rule:evenodd;fill:#231F20;" d="M360.929,308.578c3.663-1.319,6.104,0.408,4.788,4.283
		l1.506,7.536c1.54,7.835-3.24,6.108-5.992,3.357c-0.729-16.91-22.722-5.203-3.768,2.542c20.771,5.813,13.127,36.16-10.287,28.224
		c-4.28,1.02-9.684,1.211-7.539-4.594c-2.448-9.673-1.727-14.159,2.138-13.34c4.071,6.425,7.734,10.593,10.589,11.21
		c7.132,0,8.563-5.812,0.811-10.1c-12.425-3.865-16.805-11.202-13.138-21.586C345.029,307.969,352.059,306.227,360.929,308.578
		L360.929,308.578L360.929,308.578z"/>
	<path style="fill-rule:evenodd;clip-rule:evenodd;fill:#231F20;" d="M463.996,309.195c3.667-1.435,5.902,0.4,4.893,4.175
		l1.424,7.528c1.645,7.95-3.461,6.205-5.917,3.465c-0.792-16.914-22.797-5.203-3.861,2.542c20.88,5.812,13.131,36.16-10.29,28.224
		c-4.168,1.006-9.573,1.114-7.427-4.694c-2.56-9.573-1.846-14.051,2.03-13.027c4.086,6.111,7.528,10.38,10.694,10.993
		c7.12,0.008,8.462-5.809,0.718-10.077c-12.327-3.876-16.817-11.21-13.15-21.605C448.216,308.578,455.138,306.844,463.996,309.195
		L463.996,309.195L463.996,309.195z"/>
	<path style="fill-rule:evenodd;clip-rule:evenodd;fill:#231F20;" d="M426.103,317.639c-1.114-3.26,0.011-11.202-3.566-10.081
		l-11.912,4.067c-6.317,0-3.566,5.095-0.923,5.095c3.671-0.198,5.11,1.428,5.801,2.65l0.217,27.398
		c-1.727,1.641-3.667,2.351-6.018,2.351c2.549,1.727,1.734,4.486,0.62,4.983l22.016,0.011c3.655-0.508,4.355-5.513-4.299-6.736
		c-1.536-6.717-1.525-14.252,0-22.393c2.142-5.405,4.889-6.934,8.358-4.788c4.493,1.525,7.33-3.476,5.595-9.27
		C436.396,304.508,430.18,306.436,426.103,317.639L426.103,317.639L426.103,317.639z"/>
	<path style="fill-rule:evenodd;clip-rule:evenodd;fill:#231F20;" d="M99.06,310.926c5.181-1.331,8.253-5.816,10.376-12.641
		c2.134-1.828,4.078-1.828,6.227,0.007v10.903l11.202-0.011c2.138-3.158,4.063-6.616,5.599-10.481
		c1.319-2.456,5.184-2.859,6.32-0.011l0.396,10.503l8.762-0.011c1.525,2.041,1.525,4.187,0.011,6.317h-8.769l-0.004,25.459
		c0.415,3.674,1.94,4.082,3.674,3.674c1.215-0.605,1.929-1.125,2.13-2.643c1.929-0.826,3.267-0.826,4.272,0.392
		c0.411,7.554-3.461,10.803-9.068,13.146c-5.394,0.714-9.872-1.009-12.608-8.343l-0.004-31.076l-11.92,0.011l0.004,25.66
		c0.191,2.852,1.514,3.66,4.265,2.848l1.734-2.856c3.274-2.123,4.986,0.407,4.586,1.944c-0.403,6.728-4.167,10.802-11.4,12.017
		c-7.748-1.024-11.307-5.091-10.608-12.215v-27.608l-4.885-0.011C97.127,314.383,97.318,312.653,99.06,310.926L99.06,310.926
		L99.06,310.926z"/>
	<path style="fill-rule:evenodd;clip-rule:evenodd;fill:#FCB813;" d="M98.443,380.902c-0.721-0.007-1.634,0-2.646-0.007
		l-1.742-0.209l-0.194-8.246H96.5c0.725,0.101,1.446,0.101,1.947,0.202c1.203,0.108,2.13,0.299,2.938,0.718
		c1.245,0.718,1.843,1.82,1.641,3.566C102.929,379.265,101.396,380.584,98.443,380.902L98.443,380.902L98.443,380.902z
		 M98.443,365.405l-17.004,0.011l-1.634,35.237l14.047,3.869l0.003-15.583c0.916,0.004,1.735,0.108,2.852,0.209
		c0.519,0.004,1.106,0.097,1.727,0.101c3.158,0.202,7.644,0.609,8.548,0.411c3.084-0.508,9.894-1.73,11.214-9.386
		c0.815-4.777-1.23-10.07-4.474-12.529c-2.961-2.03-6.93-1.929-12.327-2.329L98.443,365.405L98.443,365.405L98.443,365.405z"/>
	<path style="fill-rule:evenodd;clip-rule:evenodd;fill:#FCB813;" d="M213.943,387.611l2.441-7.737l0.516-1.63l1.936,9.367h-2.456
		H213.943L213.943,387.611L213.943,387.611z M216.383,368.373l-6.728-0.008l-16.08,34.833l18.125,3.667l0.916-9.573l3.764-0.206
		l4.9-0.306l0.007,8.047l15.49-1.529l-10.305-34.926H216.383L216.383,368.373L216.383,368.373z"/>
	<path style="fill-rule:evenodd;clip-rule:evenodd;fill:#FCB813;" d="M275.553,381.403c-0.785,0.104-1.723,0.104-2.74,0.004
		l-1.745-0.105l-0.198-8.253h2.661c0.71,0.108,1.424,0.101,2.037,0.209c1.125,0.09,2.049,0.31,2.867,0.71
		c1.203,0.613,1.813,1.839,1.708,3.558C279.938,379.866,278.432,381.092,275.553,381.403L275.553,381.403L275.553,381.403z
		 M275.568,366.025h-16.906l-1.738,35.147l13.957,3.966l-0.007-15.59c0.916,0.004,1.835,0.104,2.852,0.202
		c0.523,0,1.14,0,1.843,0.101c3.062,0.198,7.543,0.617,8.459,0.419c3.05-0.617,9.864-1.843,11.21-9.367
		c0.912-4.904-1.237-10.096-4.493-12.537c-2.942-2.041-6.937-1.933-12.32-2.34H275.568L275.568,366.025L275.568,366.025z"/>
	<path style="fill-rule:evenodd;clip-rule:evenodd;fill:#FCB813;" d="M390.974,388.228l2.441-7.734l0.508-1.637l2.034,9.378h-2.534
		L390.974,388.228L390.974,388.228L390.974,388.228z M393.415,368.881l-6.736-0.008l-16.088,34.841l18.147,3.76l0.908-9.67
		l3.768-0.202l4.893-0.198l-0.007,8.033l15.493-1.533L403.5,368.881H393.415L393.415,368.881L393.415,368.881z"/>
	<path style="fill-rule:evenodd;clip-rule:evenodd;fill:#231F20;" d="M476.933,306.747c0,0-0.09,0.004-0.202,0h-0.605l-0.011,1.622
		l0.729,0.008l0.09-0.008c0.31,0.008,0.512-0.101,0.613-0.093c0.299-0.108,0.501-0.307,0.508-0.718
		c-0.008-0.307-0.101-0.512-0.307-0.613C477.546,306.844,477.333,306.751,476.933,306.747L476.933,306.747L476.933,306.747z
		 M476.933,305.009c0.912,0.011,1.831,0.299,2.448,1.017c0.703,0.721,1.02,1.424,1.02,2.441c0,0.919-0.318,1.846-1.009,2.46
		c-0.628,0.699-1.439,1.009-2.46,1.017c-0.919,0-1.835-0.318-2.444-1.017c-0.609-0.62-1.024-1.54-1.024-2.46
		c0.004-1.017,0.415-1.716,1.013-2.441C475.098,305.308,476.025,305.02,476.933,305.009L476.933,305.009L476.933,305.009z
		 M476.941,312.552c1.106-0.008,2.134-0.508,2.852-1.226c0.811-0.815,1.207-1.723,1.207-2.848c0-1.118-0.4-2.142-1.207-2.852
		c-0.729-0.826-1.746-1.226-2.86-1.215c-1.118,0-2.026,0.389-2.844,1.215c-0.721,0.721-1.118,1.723-1.118,2.841
		c-0.004,1.129,0.4,2.045,1.118,2.86C474.907,312.043,475.823,312.552,476.941,312.552L476.941,312.552L476.941,312.552z
		 M476.933,308.877c-0.09,0.008-0.09,0.008-0.191,0.008h-0.628v1.727h-0.808l-0.011-4.384h1.637c0.512,0,0.912,0.119,1.114,0.119
		c0.527,0.191,0.725,0.602,0.718,1.204c0.008,0.407-0.101,0.617-0.407,0.826c-0.202,0.09-0.303,0.209-0.692,0.209
		c0.381,0.101,0.681,0.198,0.8,0.392c0.097,0.307,0.299,0.508,0.299,0.826l0.008,0.307c0,0-0.008,0.194-0.008,0.292
		c0,0.108,0.008,0.209,0.008,0.209h-0.725l0.008-0.198l-0.008-0.303c0-0.508-0.202-0.927-0.4-1.125
		C477.456,308.986,477.232,308.885,476.933,308.877L476.933,308.877L476.933,308.877z"/>
	<path style="fill-rule:evenodd;clip-rule:evenodd;fill:#231F20;" d="M438.022,365.005c-0.101-0.008-0.101-0.008-0.198,0
		l-0.621-0.008v1.641h0.718l0.101-0.008c0.299,0.008,0.508-0.097,0.62-0.093c0.307-0.206,0.4-0.415,0.4-0.721
		c0-0.303,0-0.512-0.202-0.609C438.643,365.113,438.422,365.005,438.022,365.005L438.022,365.005L438.022,365.005z M438.022,363.274
		c1.02,0,1.742,0.303,2.437,0.912c0.714,0.71,1.032,1.529,1.039,2.557c-0.007,0.904-0.318,1.719-1.039,2.43
		c-0.688,0.729-1.409,1.028-2.437,1.032c-0.908-0.004-1.828-0.303-2.441-1.02c-0.725-0.71-1.017-1.536-1.024-2.452
		c0.008-1.017,0.299-1.835,1.017-2.546C436.195,363.577,437.114,363.278,438.022,363.274L438.022,363.274L438.022,363.274z
		 M438.022,370.712c1.118-0.007,2.041-0.407,2.852-1.133c0.826-0.796,1.215-1.835,1.215-2.837c0-1.118-0.4-2.157-1.215-2.964
		c-0.815-0.71-1.734-1.114-2.852-1.121c-1.107,0-2.026,0.408-2.848,1.121c-0.808,0.807-1.11,1.835-1.11,2.964
		c0,1.002,0.303,2.041,1.11,2.837C435.993,370.301,436.905,370.705,438.022,370.712L438.022,370.712L438.022,370.712z
		 M438.022,367.143c-0.101,0-0.198,0.004-0.198,0.004l-0.621-0.004v1.738h-0.807v-4.392h1.525c0.101,0.008,0.101,0.008,0.101,0.008
		c0.501-0.008,0.826,0.09,1.118,0.09c0.419,0.22,0.725,0.628,0.725,1.136c-0.008,0.411-0.105,0.71-0.524,0.916
		c-0.09,0.104-0.291,0.104-0.591,0.198c0.389,0,0.591,0.202,0.811,0.411c0.198,0.198,0.202,0.497,0.198,0.718v0.299
		c0,0.101,0.004,0.209,0,0.299c0.011,0.101,0,0.209,0.105,0.318h-0.725c0,0,0,0-0.097-0.108l0.008-0.108l-0.008-0.299
		c0-0.62-0.101-0.919-0.4-1.118C438.531,367.236,438.321,367.147,438.022,367.143L438.022,367.143L438.022,367.143z"/>
</g>
</svg>
